<svg width="187" height="219" viewBox="0 0 187 219" fill="none" xmlns="http://www.w3.org/2000/svg">
<path d="M100.953 209.48L90.6305 200.633L95.2649 166.928C102.427 114.685 100.531 119.53 112.328 119.53C124.125 119.53 122.229 114.474 129.391 166.717L134.026 200.422L123.704 209.48C118.016 214.325 112.96 218.538 112.328 218.538C111.696 218.538 106.64 214.536 100.953 209.48V209.48Z" fill="#102857"/>
<path d="M81.6682 82.9536C83.1576 90.0691 87.0623 96.4505 92.7201 101.015C98.3779 105.58 105.44 108.048 112.71 107.999C119.98 107.951 127.009 105.389 132.605 100.749C138.202 96.1094 142.021 89.6766 143.415 82.5418L130.347 79.9879C129.542 84.1067 127.337 87.8203 124.106 90.4989C120.876 93.1775 116.818 94.6562 112.621 94.6842C108.425 94.7122 104.347 93.2878 101.081 90.6525C97.8151 88.0172 95.5609 84.3333 94.7011 80.2256L81.6682 82.9536Z" fill="#102857"/>
<path fill-rule="evenodd" clip-rule="evenodd" d="M183.549 97.488C178.8 112.598 172.723 122.567 160 132L138.8 111.149C146.434 105.49 152.08 97.5586 154.93 88.4928C157.779 79.4269 157.685 69.6918 154.662 60.6825C151.638 51.6733 145.84 43.8525 138.098 38.3411C130.357 32.8297 121.069 29.9105 111.566 30.0021C102.064 30.0937 92.8341 33.1912 85.2001 38.8508C77.5661 44.5104 71.9198 52.4414 69.0704 61.5072C66.221 70.5731 66.3148 80.3082 69.3384 89.3175C72.3619 98.3267 78.16 106.147 85.9016 111.659L79.3214 118.067L21.2132 176.175L0 154.962L45.1834 109.778C43.6271 106.469 42.2402 102.864 40.8973 98.8625C35.8581 83.8471 35.7018 67.6218 40.4507 52.5121C45.1997 37.4023 54.6102 24.1839 67.3335 14.7513C80.0568 5.31866 95.4397 0.156085 111.277 0.00348338C127.115 -0.149118 142.595 4.71608 155.497 13.9018C168.4 23.0875 178.063 36.1222 183.103 51.1376C188.142 66.153 188.298 82.3782 183.549 97.488Z" fill="#2563EB"/>
</svg>
