<svg width="680" height="285" viewBox="0 0 680 285" fill="none" xmlns="http://www.w3.org/2000/svg">
<path d="M265.04 210.33C255.287 210.33 246.547 208.747 238.82 205.58C231.093 202.413 224.887 197.727 220.2 191.52C215.64 185.313 213.233 177.84 212.98 169.1H247.56C248.067 174.04 249.777 177.84 252.69 180.5C255.603 183.033 259.403 184.3 264.09 184.3C268.903 184.3 272.703 183.223 275.49 181.07C278.277 178.79 279.67 175.687 279.67 171.76C279.67 168.467 278.53 165.743 276.25 163.59C274.097 161.437 271.373 159.663 268.08 158.27C264.913 156.877 260.353 155.293 254.4 153.52C245.787 150.86 238.757 148.2 233.31 145.54C227.863 142.88 223.177 138.953 219.25 133.76C215.323 128.567 213.36 121.79 213.36 113.43C213.36 101.017 217.857 91.3267 226.85 84.36C235.843 77.2667 247.56 73.72 262 73.72C276.693 73.72 288.537 77.2667 297.53 84.36C306.523 91.3267 311.337 101.08 311.97 113.62H276.82C276.567 109.313 274.983 105.957 272.07 103.55C269.157 101.017 265.42 99.75 260.86 99.75C256.933 99.75 253.767 100.827 251.36 102.98C248.953 105.007 247.75 107.983 247.75 111.91C247.75 116.217 249.777 119.573 253.83 121.98C257.883 124.387 264.217 126.983 272.83 129.77C281.443 132.683 288.41 135.47 293.73 138.13C299.177 140.79 303.863 144.653 307.79 149.72C311.717 154.787 313.68 161.31 313.68 169.29C313.68 176.89 311.717 183.793 307.79 190C303.99 196.207 298.417 201.147 291.07 204.82C283.723 208.493 275.047 210.33 265.04 210.33ZM364.075 182.21H410.055V209H327.785V183.16L371.865 129.77H328.165V102.98H409.105V128.82L364.075 182.21ZM516.472 117.8C514.066 113.367 510.582 110.01 506.022 107.73C501.589 105.323 496.332 104.12 490.252 104.12C479.739 104.12 471.316 107.603 464.982 114.57C458.649 121.41 455.482 130.593 455.482 142.12C455.482 154.407 458.776 164.033 465.362 171C472.076 177.84 481.259 181.26 492.912 181.26C500.892 181.26 507.606 179.233 513.052 175.18C518.626 171.127 522.679 165.3 525.212 157.7H483.982V133.76H554.662V163.97C552.256 172.077 548.139 179.613 542.312 186.58C536.612 193.547 529.329 199.183 520.462 203.49C511.596 207.797 501.589 209.95 490.442 209.95C477.269 209.95 465.489 207.1 455.102 201.4C444.842 195.573 436.799 187.53 430.972 177.27C425.272 167.01 422.422 155.293 422.422 142.12C422.422 128.947 425.272 117.23 430.972 106.97C436.799 96.5833 444.842 88.54 455.102 82.84C465.362 77.0133 477.079 74.1 490.252 74.1C506.212 74.1 519.639 77.9633 530.532 85.69C541.552 93.4167 548.836 104.12 552.382 117.8H516.472ZM674.309 118.56C674.309 126.287 672.536 133.38 668.989 139.84C665.442 146.173 659.996 151.303 652.649 155.23C645.302 159.157 636.182 161.12 625.289 161.12H605.149V209H572.659V75.62H625.289C635.929 75.62 644.922 77.4567 652.269 81.13C659.616 84.8033 665.126 89.87 668.799 96.33C672.472 102.79 674.309 110.2 674.309 118.56ZM622.819 135.28C629.026 135.28 633.649 133.823 636.689 130.91C639.729 127.997 641.249 123.88 641.249 118.56C641.249 113.24 639.729 109.123 636.689 106.21C633.649 103.297 629.026 101.84 622.819 101.84H605.149V135.28H622.819Z" fill="white"/>
<path d="M100.953 243.48L90.6305 234.633L95.2649 200.928C102.427 148.685 100.531 153.53 112.328 153.53C124.125 153.53 122.229 148.474 129.391 200.717L134.026 234.422L123.704 243.48C118.016 248.325 112.96 252.538 112.328 252.538C111.696 252.538 106.64 248.536 100.953 243.48Z" fill="white"/>
<path d="M81.6682 116.954C83.1576 124.069 87.0623 130.45 92.7201 135.015C98.3779 139.58 105.44 142.048 112.71 141.999C119.98 141.951 127.009 139.389 132.605 134.749C138.202 130.109 142.021 123.677 143.415 116.542L130.347 113.988C129.542 118.107 127.337 121.82 124.106 124.499C120.876 127.178 116.818 128.656 112.621 128.684C108.425 128.712 104.347 127.288 101.081 124.652C97.8151 122.017 95.5609 118.333 94.7011 114.226L81.6682 116.954Z" fill="white"/>
<path fill-rule="evenodd" clip-rule="evenodd" d="M183.549 131.488C178.8 146.598 172.723 156.567 160 166L138.8 145.149C146.434 139.49 152.08 131.559 154.93 122.493C157.779 113.427 157.685 103.692 154.662 94.6825C151.638 85.6733 145.84 77.8525 138.098 72.3411C130.357 66.8297 121.069 63.9105 111.566 64.0021C102.064 64.0937 92.8341 67.1912 85.2001 72.8508C77.5661 78.5104 71.9198 86.4414 69.0704 95.5072C66.221 104.573 66.3148 114.308 69.3384 123.317C72.362 132.327 78.16 140.147 85.9016 145.659L79.3214 152.067L21.2132 210.175L0 188.962L45.1834 143.778C43.6271 140.469 42.2402 136.864 40.8973 132.862C35.8581 117.847 35.7018 101.622 40.4507 86.5121C45.1997 71.4023 54.6102 58.1839 67.3335 48.7513C80.0568 39.3187 95.4397 34.1561 111.277 34.0035C127.115 33.8509 142.595 38.7161 155.497 47.9018C168.4 57.0875 178.063 70.1222 183.103 85.1376C188.142 100.153 188.298 116.378 183.549 131.488Z" fill="white"/>
</svg>
