<svg width="187" height="220" viewBox="0 0 187 220" fill="none" xmlns="http://www.w3.org/2000/svg">
<path d="M100.953 210.019L90.6305 201.171L95.2649 167.466C102.427 115.224 100.531 120.069 112.328 120.069C124.125 120.069 122.229 115.013 129.391 167.256L134.026 200.961L123.704 210.019C118.016 214.864 112.96 219.077 112.328 219.077C111.696 219.077 106.64 215.075 100.953 210.019Z" fill="white"/>
<path d="M81.6682 83.4922C83.1576 90.6077 87.0623 96.9891 92.7201 101.554C98.3779 106.119 105.44 108.586 112.71 108.538C119.98 108.489 127.009 105.928 132.605 101.288C138.202 96.648 142.021 90.2152 143.415 83.0804L130.347 80.5264C129.542 84.6453 127.337 88.3589 124.106 91.0375C120.876 93.7161 116.818 95.1948 112.621 95.2228C108.425 95.2508 104.347 93.8263 101.081 91.1911C97.8151 88.5558 95.5609 84.8719 94.7011 80.7642L81.6682 83.4922Z" fill="white"/>
<path fill-rule="evenodd" clip-rule="evenodd" d="M183.549 98.0265C178.8 113.136 172.723 123.106 160 132.539L138.8 111.688C146.434 106.028 152.08 98.0972 154.93 89.0313C157.779 79.9655 157.685 70.2303 154.662 61.2211C151.638 52.2119 145.84 44.3911 138.098 38.8797C130.357 33.3682 121.069 30.4491 111.566 30.5407C102.064 30.6322 92.8341 33.7298 85.2001 39.3894C77.5661 45.0489 71.9198 52.98 69.0704 62.0458C66.221 71.1116 66.3148 80.8468 69.3384 89.8561C72.362 98.8653 78.16 106.686 85.9016 112.198L79.3214 118.605L21.2132 176.714L0 155.5L45.1834 110.317C43.6271 107.007 42.2402 103.402 40.8973 99.401C35.8581 84.3856 35.7018 68.1603 40.4507 53.0506C45.1997 37.9409 54.6102 24.7225 67.3335 15.2899C80.0568 5.85723 95.4397 0.694659 111.277 0.542057C127.115 0.389456 142.595 5.25466 155.497 14.4404C168.4 23.6261 178.063 36.6607 183.103 51.6761C188.142 66.6915 188.298 82.9168 183.549 98.0265Z" fill="white"/>
</svg>
